# xmcd
#
# Track frame offsets:
#	182
#	11920
#	25795
#	39745
#	53020
#	71170
#	87970
#	103270
#	118870
#	131995
#	149995
#	164395
#	176695
#	198520
#
# Disc length: 2905
#
# Revision: 2
# Processed by: cddbd v1.5.1PL0 Copyright (c) Steve Scherf et al.
# Submitted via: audiograbber 1.83.01
# Normalized: r1:TDELIM( - )
#
DISCID=da0b570e
DTITLE=Various Artist - New Sound Of Country #2[CD2]
DYEAR=1900
DGENRE=Country
TTITLE0=The Kentucky Headhunters - The Ballad Of Davy Crockett
TTITLE1=Dwight Yoakam - Little Sister
TTITLE2=George Strait - Her Goodbye Hit Me In The Heart
TTITLE3=Sammy Kershaw - She Don't Know She's Beautiful
TTITLE4=James Blundell and James Reyne - Way Out West
TTITLE5=Lee Kernaghan - She's My Ute
TTITLE6=Ricky Van Shelton - Living Proof
TTITLE7=Billy Ray Cyrus - She's Not Crying Anymore
TTITLE8=The Judds - Girls Night Out
TTITLE9=Anne Kirkpatrick - Out Of The Blue
TTITLE10=Warren Derwent - Back Of Beyond
TTITLE11=Tania Kernaghan - I'll Be Gone
TTITLE12=Michael Murphy - Wildfire
TTITLE13=Ronnie Milsap - Lost In The Fifties Tonight
EXTD=The new sound of country music.....
EXTT0=
EXTT1=
EXTT2=
EXTT3=
EXTT4=
EXTT5=
EXTT6=
EXTT7=
EXTT8=
EXTT9=
EXTT10=
EXTT11=
EXTT12=
EXTT13=
PLAYORDER=
